<svg xmlns="http://www.w3.org/2000/svg" viewBox="0 0 240 96" role="img" aria-labelledby="title desc">
  <title id="title">Shengquan Group logo</title>
  <desc id="desc">Stylized SQ monogram inside a rounded rectangle with the company name</desc>
  <rect x="4" y="10" width="84" height="76" rx="12" fill="#0f172a"/>
  <path d="M36 34c-8 0-14 5-14 11 0 12 18 8 18 16 0 3-3 5-7 5-4 0-8-2-11-5l-5 7c4 4 10 7 16 7 9 0 16-6 16-13 0-13-18-9-18-16 0-3 2-5 7-5 3 0 6 2 9 4l5-7c-4-4-9-4-14-4Zm32 0c-11 0-20 8-20 20s9 20 20 20c5 0 9-2 12-5l-6-7c-2 2-4 3-6 3-5 0-9-4-9-11 0-6 4-11 9-11 2 0 4 1 6 3l6-7c-3-3-7-5-12-5Z" fill="#f97316"/>
  <text x="104" y="43" fill="#0f172a" font-family="Inter, system-ui, -apple-system, BlinkMacSystemFont, 'Segoe UI', sans-serif" font-size="22" font-weight="700">Shengquan</text>
  <text x="104" y="68" fill="#0f172a" font-family="Inter, system-ui, -apple-system, BlinkMacSystemFont, 'Segoe UI', sans-serif" font-size="18" font-weight="500">Group</text>
</svg>
