<svg version="1.2" xmlns="http://www.w3.org/2000/svg" viewBox="0 0 2526 2918" width="2526" height="2918">
	<title>Логотип Интема</title>
	<style>
		.s0 { fill: #941b20 } 
		.s1 { fill: #ffffff } 
	</style>
	<g id="Слой 1">
		<g id="&lt;Group&gt;">
			<g id="&lt;Group&gt;">
			</g>
			<g id="&lt;Group&gt;">
			</g>
			<g id="&lt;Group&gt;">
			</g>
			<g id="&lt;Group&gt;">
			</g>
			<g id="&lt;Group&gt;">
				<path id="Фигура 1" fill-rule="evenodd" class="s0" d="m2525.7 2188l-1262.8 729.2-1262.8-729.2v-1458.1l1262.8-729.2 1262.8 729.2z"/>
				<path id="&lt;Path&gt;" class="s1" d="m1140.7 594.5v185.6l192.4-43.3v-187z"/>
				<path id="&lt;Path&gt;" class="s1" d="m89 1710.5l282.3-187c0 0-53.3-359.4 108.6-443.3 0 0 36.9-25.5 414.5-39.2 0 0-53.8 246.2-71.1 382.6 0 0-44.7 305.6-102.6 459.3 0 0-56.1 162.8-114.1 223 0 0-134.9 7.3-180.6 18.7 0 0-32.8 6.4-51 51.5 0 0-18.3 38.3-19.2 47.9 0 0-10.9 32.4 59.8 33.7h268.6c0 0 182.9 0 289.1-44.7 0 0 75.7-26.4 77.5-98l-303.7 0.9c0 0 204.3-306 356.6-1047.6l294.2 3.7c0 0 73.9 6.4 151.4-62.5 0 0 61.1-51.5 89.9-203.9h-70.3c0 0-91.2 139.6-187 140.1l-562.7 0.4c0 0-343.9 2.3-506.7 122.2 0 0-134.5 87.1-198.9 257.3 0 0-38.3 90.7-24.6 384.9z"/>
				<path id="&lt;Path&gt;" class="s1" d="m1121.5 1212h192.9l62.1 643 388.1-524c0 0 250.8-354.8 643-393.1l-15.5 71.1-278.2 115.9-272.3 987.4 253.2 13.2-25.1 81.2-494.4 42.4 241.3-767.6-544.6 709.6-67.5 2.3z"/>
			</g>
		</g>
	</g>
</svg>