<svg width="1200" height="630" viewBox="0 0 1200 630" fill="none" xmlns="http://www.w3.org/2000/svg">
  <defs>
    <linearGradient id="bg3" x1="0" y1="0" x2="1100" y2="600" gradientUnits="userSpaceOnUse">
      <stop stop-color="#111827"/>
      <stop offset="1" stop-color="#7C3AED"/>
    </linearGradient>
    <linearGradient id="frame" x1="320" y1="140" x2="880" y2="500" gradientUnits="userSpaceOnUse">
      <stop stop-color="#C084FC" stop-opacity="0.85"/>
      <stop offset="1" stop-color="#A5B4FC" stop-opacity="0.8"/>
    </linearGradient>
  </defs>
  <rect width="1200" height="630" rx="32" fill="url(#bg3)"/>
  <circle cx="220" cy="160" r="130" fill="#7C3AED" opacity="0.35"/>
  <circle cx="1010" cy="520" r="150" fill="#6366F1" opacity="0.25"/>
  <rect x="300" y="150" width="620" height="330" rx="32" fill="url(#frame)"/>
  <rect x="340" y="190" width="160" height="90" rx="18" fill="#111827" opacity="0.7"/>
  <rect x="520" y="190" width="340" height="90" rx="18" fill="#4F46E5" opacity="0.9"/>
  <rect x="340" y="320" width="500" height="28" rx="14" fill="#111827" opacity="0.6"/>
  <rect x="340" y="365" width="410" height="26" rx="13" fill="#111827" opacity="0.52"/>
  <rect x="340" y="410" width="470" height="22" rx="11" fill="#111827" opacity="0.45"/>
  <path d="M250 480C360 430 470 450 600 470C740 492 860 494 980 430" stroke="#DDD6FE" stroke-width="34" stroke-linecap="round" opacity="0.6"/>
  <circle cx="540" cy="235" r="22" fill="#C7D2FE" opacity="0.85"/>
  <circle cx="590" cy="235" r="18" fill="#E0E7FF" opacity="0.9"/>
  <circle cx="640" cy="235" r="14" fill="#EEF2FF"/>
</svg>
