<svg width="1200" height="630" viewBox="0 0 1200 630" fill="none" xmlns="http://www.w3.org/2000/svg">
  <defs>
    <linearGradient id="bg" x1="80" y1="40" x2="1120" y2="590" gradientUnits="userSpaceOnUse">
      <stop stop-color="#0B1120"/>
      <stop offset="1" stop-color="#0F766E"/>
    </linearGradient>
    <linearGradient id="panel" x1="260" y1="150" x2="940" y2="470" gradientUnits="userSpaceOnUse">
      <stop stop-color="#34D399" stop-opacity="0.85"/>
      <stop offset="1" stop-color="#22D3EE" stop-opacity="0.75"/>
    </linearGradient>
  </defs>
  <rect width="1200" height="630" rx="32" fill="url(#bg)"/>
  <circle cx="1040" cy="150" r="110" fill="#22C55E" opacity="0.15"/>
  <circle cx="180" cy="520" r="140" fill="#0EA5E9" opacity="0.18"/>
  <rect x="250" y="160" width="700" height="320" rx="28" fill="url(#panel)"/>
  <rect x="290" y="200" width="210" height="90" rx="18" fill="#0F172A" opacity="0.75"/>
  <rect x="530" y="200" width="180" height="90" rx="18" fill="#0EA5E9" opacity="0.85"/>
  <rect x="740" y="200" width="140" height="90" rx="18" fill="#14B8A6" opacity="0.9"/>
  <rect x="310" y="330" width="560" height="26" rx="13" fill="#0F172A" opacity="0.65"/>
  <rect x="310" y="370" width="460" height="24" rx="12" fill="#0F172A" opacity="0.55"/>
  <rect x="310" y="410" width="510" height="22" rx="11" fill="#0F172A" opacity="0.45"/>
  <path d="M240 480C360 430 500 440 620 470C720 496 840 520 960 470" stroke="#A7F3D0" stroke-width="32" stroke-linecap="round" opacity="0.65"/>
</svg>
