<svg width="1200" height="630" viewBox="0 0 1200 630" fill="none" xmlns="http://www.w3.org/2000/svg">
  <defs>
    <linearGradient id="g1" x1="0" y1="0" x2="1200" y2="630" gradientUnits="userSpaceOnUse">
      <stop stop-color="#0F172A"/>
      <stop offset="1" stop-color="#1E40AF"/>
    </linearGradient>
    <linearGradient id="g2" x1="200" y1="80" x2="900" y2="520" gradientUnits="userSpaceOnUse">
      <stop stop-color="#60A5FA" stop-opacity="0.9"/>
      <stop offset="1" stop-color="#A5B4FC" stop-opacity="0.7"/>
    </linearGradient>
  </defs>
  <rect width="1200" height="630" rx="32" fill="url(#g1)"/>
  <circle cx="220" cy="170" r="120" fill="#1E3A8A" opacity="0.5"/>
  <circle cx="980" cy="470" r="160" fill="#2563EB" opacity="0.25"/>
  <path d="M180 430C260 330 420 290 560 320C690 348 810 430 920 428" stroke="#93C5FD" stroke-width="36" stroke-linecap="round" opacity="0.6"/>
  <rect x="270" y="170" width="660" height="290" rx="36" fill="url(#g2)" opacity="0.9"/>
  <rect x="310" y="210" width="220" height="70" rx="18" fill="#0F172A" opacity="0.75"/>
  <rect x="560" y="210" width="330" height="70" rx="18" fill="#0EA5E9" opacity="0.85"/>
  <rect x="310" y="310" width="580" height="30" rx="14" fill="#0F172A" opacity="0.65"/>
  <rect x="310" y="360" width="440" height="30" rx="14" fill="#0F172A" opacity="0.55"/>
  <rect x="310" y="410" width="520" height="24" rx="12" fill="#0F172A" opacity="0.45"/>
  <circle cx="330" cy="245" r="10" fill="#38BDF8"/>
  <circle cx="360" cy="245" r="10" fill="#22D3EE"/>
  <circle cx="390" cy="245" r="10" fill="#2DD4BF"/>
</svg>
